Patient4_TMGait_0pt5_01_right_44_GRF.mot
version=1
nRows=26
nColumns=19
inDegrees=no
endheader
time	F1x	F1y	F1z	M1x	M1y	M1z	F2x	F2y	F2z	M2x	M2y	M2z	EC1x	EC1y	EC1z	EC2x	EC2y	EC2z
57.97	1.2113	801.2566	62.4436	-261.7234	-54.5361	725.5553	-5.102	-4.1064	4.3699	-2.2615	-11.6351	-8.2551	-0.0592	0.0182	-0.0073	-0.0462	0.0165	0.9585
57.9828	-0.82158	793.6808	61.8749	-258.7062	-54.0377	715.785	-3.6037	-2.2224	2.987	-1.2985	-7.8002	-4.9912	-0.0592	0.0182	-0.0073	-0.0462	0.0165	0.9585
57.9956	-2.0182	784.6809	61.0568	-255.1878	-53.0507	704.4361	-2.3136	-0.61418	1.7823	-0.46406	-4.5106	-2.2278	-0.0592	0.0182	-0.0073	-0.0462	0.0165	0.9585
58.0084	-2.2655	774.7632	60.0488	-251.3815	-51.6326	692.0632	-1.316	0.63864	0.84649	0.19268	-1.9849	-0.10304	-0.0592	0.0182	-0.0073	-0.0462	0.0165	0.9585
58.0211	-1.6319	764.4841	58.936	-247.5113	-49.9014	679.2203	-0.62255	1.5446	0.17989	0.66892	-0.22533	1.4095	-0.0592	0.0182	-0.0073	-0.0462	0.0165	0.9585
58.0339	-0.29182	754.3843	57.7847	-243.7824	-47.9807	666.4286	-0.18869	2.1402	-0.24215	0.98171	0.86277	2.3863	-0.0592	0.0182	-0.0073	-0.0462	0.0165	0.9585
58.0467	1.5621	744.9531	56.6467	-240.3703	-45.9848	654.1411	0.033194	2.4754	-0.4765	1.1556	1.4414	2.9437	-0.0592	0.0182	-0.0073	-0.0462	0.0165	0.9585
58.0595	3.742	736.6543	55.5578	-237.4313	-44.0047	642.7799	0.105	2.5823	-0.56827	1.2109	1.6601	3.1716	-0.0592	0.0182	-0.0073	-0.0462	0.0165	0.9585
58.0723	6.1091	729.8904	54.5443	-235.0934	-42.0997	632.6921	0.066963	2.4699	-0.56812	1.1552	1.6639	3.122	-0.0592	0.0182	-0.0073	-0.0462	0.0165	0.9585
58.0851	8.5748	724.9621	53.629	-233.4427	-40.3071	624.1205	-0.046014	2.1176	-0.50734	0.98487	1.5574	2.7892	-0.0592	0.0182	-0.0073	-0.0462	0.0165	0.9585
58.0979	11.0887	722.0051	52.8222	-232.5105	-38.6352	617.1644	-0.20292	1.4785	-0.42626	0.68583	1.4246	2.1349	-0.0592	0.0182	-0.0073	-0.0462	0.0165	0.9585
58.1106	13.652	720.9601	52.134	-232.2663	-37.077	611.7474	-0.37774	0.49224	-0.34213	0.23811	1.2969	1.109	-0.0592	0.0182	-0.0073	-0.0462	0.0165	0.9585
58.1234	16.2783	721.6005	51.5514	-232.6249	-35.5996	607.6642	-0.52972	-0.89007	-0.26895	-0.37533	1.181	-0.33423	-0.0592	0.0182	-0.0073	-0.0462	0.0165	0.9585
58.1362	19.0288	723.5527	51.0703	-233.4527	-34.1683	604.5795	-0.60632	-2.658	-0.20469	-1.1486	1.0564	-2.1874	-0.0592	0.0182	-0.0073	-0.0462	0.0165	0.9585
58.149	21.9602	726.3349	50.6661	-234.5799	-32.7324	602.0836	-0.53505	-4.7049	-0.14187	-2.0342	0.88732	-4.3456	-0.0592	0.0182	-0.0073	-0.0462	0.0165	0.9585
58.1618	25.1667	729.3591	50.3281	-235.8013	-31.2422	599.6799	-0.22675	-6.752	-0.063189	-2.9117	0.62175	-6.5265	-0.0592	0.0182	-0.0073	-0.0462	0.0165	0.9585
58.1746	28.7482	731.9932	50.0423	-236.8983	-29.646	596.8591	0.42534	-8.2882	0.049127	-3.5613	0.19731	-8.2146	-0.0592	0.0182	-0.0073	-0.0462	0.0165	0.9585
58.1874	32.798	733.6726	49.8256	-237.6726	-27.9288	593.1839	1.5219	-8.488	0.2112	-3.6276	-0.45165	-8.5732	-0.0592	0.0182	-0.0073	-0.0462	0.0165	0.9585
58.2001	37.3388	734.0252	49.6879	-237.9868	-26.0889	588.3905	3.1468	-6.1603	0.43132	-2.5961	-1.371	-6.3998	-0.0592	0.0182	-0.0073	-0.0462	0.0165	0.9585
58.2129	42.3161	732.9301	49.6494	-237.7856	-24.1568	582.4415	5.3288	0.24915	0.7006	0.20575	-2.5563	-0.12243	-0.0592	0.0182	-0.0073	-0.0462	0.0165	0.9585
58.2257	47.5986	730.478	49.6964	-237.0885	-22.1604	575.475	7.9707	12.5655	0.99005	5.5666	-3.9249	12.1194	-0.0592	0.0182	-0.0073	-0.0462	0.0165	0.9585
58.2385	52.9875	726.8377	49.7908	-235.9449	-20.1361	567.7115	10.7797	32.6364	1.2221	14.2852	-5.2586	32.2133	-0.0592	0.0182	-0.0073	-0.0462	0.0165	0.9585
58.2513	58.2614	722.0163	49.8396	-234.3596	-18.0855	559.2561	13.151	61.8786	1.2805	26.9696	-6.1673	61.6344	-0.0592	0.0182	-0.0073	-0.0462	0.0165	0.9585
58.2641	63.1576	715.6126	49.7215	-232.2096	-16.0124	549.9254	14.094	100.6204	1.0449	43.7516	-6.1004	100.7877	-0.0592	0.0182	-0.0073	-0.0462	0.0165	0.9585
58.2769	67.4103	706.6404	49.2819	-229.1908	-13.9025	539.0732	12.4163	147.1877	0.4601	63.8923	-4.4956	148.0772	-0.0592	0.0182	-0.0073	-0.0462	0.0165	0.9585
58.2896	70.7451	693.5803	48.387	-224.8296	-11.7684	525.6446	7.2693	197.0747	-0.63333	85.4231	-0.8681	199.0619	-0.0592	0.0182	-0.0073	-0.0462	0.0165	0.9585
